<svg width="920" height="300" viewBox="0 0 920 300" fill="none" xmlns="http://www.w3.org/2000/svg">
  <defs>
    <linearGradient id="iconBg" x1="82" y1="58" x2="254" y2="258" gradientUnits="userSpaceOnUse">
      <stop stop-color="#C9A8FF"/>
      <stop offset="0.42" stop-color="#6EA6FF"/>
      <stop offset="0.72" stop-color="#8A7CFF"/>
      <stop offset="1" stop-color="#FFD2EA"/>
    </linearGradient>
    <linearGradient id="ops" x1="566" y1="98" x2="830" y2="160" gradientUnits="userSpaceOnUse">
      <stop stop-color="#4C7DFF"/>
      <stop offset=".48" stop-color="#6D7CFF"/>
      <stop offset="1" stop-color="#D987DF"/>
    </linearGradient>
    <linearGradient id="paper" x1="132" y1="86" x2="214" y2="174" gradientUnits="userSpaceOnUse">
      <stop stop-color="#FFFFFF"/>
      <stop offset="1" stop-color="#EEF2FF"/>
    </linearGradient>
    <linearGradient id="pink" x1="214" y1="176" x2="286" y2="258" gradientUnits="userSpaceOnUse">
      <stop stop-color="#FFD8F0"/>
      <stop offset="1" stop-color="#F78BD5"/>
    </linearGradient>
    <linearGradient id="line" x1="48" y1="230" x2="258" y2="168" gradientUnits="userSpaceOnUse">
      <stop stop-color="#FFFFFF"/>
      <stop offset=".5" stop-color="#EAF0FF"/>
      <stop offset="1" stop-color="#FFFFFF"/>
    </linearGradient>
    <filter id="iconShadow" x="20" y="18" width="306" height="276" filterUnits="userSpaceOnUse" color-interpolation-filters="sRGB">
      <feDropShadow dx="0" dy="22" stdDeviation="24" flood-color="#5E6BDB" flood-opacity=".20"/>
      <feDropShadow dx="0" dy="1" stdDeviation="3" flood-color="#FFFFFF" flood-opacity=".70"/>
    </filter>
    <filter id="symbolShadow" x="86" y="44" width="214" height="232" filterUnits="userSpaceOnUse" color-interpolation-filters="sRGB">
      <feDropShadow dx="0" dy="14" stdDeviation="18" flood-color="#5B6DFF" flood-opacity=".20"/>
    </filter>
    <filter id="checkShadow" x="188" y="154" width="130" height="130" filterUnits="userSpaceOnUse" color-interpolation-filters="sRGB">
      <feDropShadow dx="0" dy="14" stdDeviation="14" flood-color="#EF74C5" flood-opacity=".30"/>
    </filter>
    <clipPath id="iconClip">
      <rect x="46" y="42" width="238" height="220" rx="64"/>
    </clipPath>
  </defs>

  <rect width="920" height="300" rx="0" fill="none"/>

  <g filter="url(#iconShadow)">
    <rect x="46" y="42" width="238" height="220" rx="64" fill="url(#iconBg)"/>
    <rect x="46" y="42" width="238" height="220" rx="64" fill="white" opacity=".06"/>
    <g clip-path="url(#iconClip)">
      <circle cx="244" cy="52" r="100" fill="#FFFFFF" opacity=".18"/>
      <circle cx="284" cy="248" r="112" fill="#FFD7EA" opacity=".42"/>
      <circle cx="62" cy="262" r="74" fill="#4A9BFF" opacity=".32"/>
    </g>
  </g>

  <g filter="url(#symbolShadow)">
    <path d="M102 106C102 90.536 114.536 78 130 78H188C233.55 78 263 106.755 263 147C263 187.245 233.55 216 188 216H154V244C154 259.464 141.464 272 126 272H102V106Z" fill="white" opacity=".97"/>
    <path d="M142 120H184C208.36 120 221 130.326 221 148C221 165.674 208.36 176 184 176H142V120Z" fill="url(#paper)"/>
    <path d="M142 176H184C208.36 176 221 165.674 221 148C221 165.674 208.36 176 184 176H142V216H102V176H142Z" fill="#C9D5FF" opacity=".72"/>
    <path d="M130 108V196L145 184" stroke="#8D84FF" stroke-width="6" stroke-linecap="round" stroke-linejoin="round" opacity=".88"/>
    <path d="M162 132H194" stroke="#9A91FF" stroke-width="5" stroke-linecap="round" opacity=".72"/>
    <path d="M162 152H198" stroke="#9A91FF" stroke-width="5" stroke-linecap="round" opacity=".42"/>
    <path d="M190 92V124H222" fill="#8A7CFF" opacity=".86"/>
  </g>

  <path d="M50 232L86 202L122 214L166 176L212 188L252 150" stroke="url(#line)" stroke-width="8" stroke-linecap="round" stroke-linejoin="round"/>
  <circle cx="50" cy="232" r="11" fill="white"/>
  <circle cx="86" cy="202" r="11" fill="white"/>
  <circle cx="122" cy="214" r="11" fill="white"/>
  <circle cx="166" cy="176" r="11" fill="white"/>
  <circle cx="212" cy="188" r="10" fill="white"/>
  <circle cx="252" cy="150" r="11" fill="white"/>

  <g filter="url(#checkShadow)">
    <circle cx="230" cy="214" r="43" fill="url(#pink)"/>
    <circle cx="230" cy="214" r="43" fill="white" opacity=".10"/>
    <path d="M210 212L224 227L253 196" stroke="white" stroke-width="11" stroke-linecap="round" stroke-linejoin="round"/>
  </g>

  <text x="340" y="170" fill="#18233F" font-family="Inter, SF Pro Display, Segoe UI, Arial, sans-serif" font-size="104" font-weight="850" letter-spacing="-7">Pay</text>
  <text x="560" y="170" fill="url(#ops)" font-family="Inter, SF Pro Display, Segoe UI, Arial, sans-serif" font-size="104" font-weight="850" letter-spacing="-7">Ops</text>
  <text x="344" y="226" fill="#7F8AA8" font-family="Inter, SF Pro Display, Segoe UI, Arial, sans-serif" font-size="25" font-weight="520" letter-spacing="-.4">Контроль оплат. Прозорість. Надійність.</text>
</svg>
